# xmcd CD database file
#
# Track frame offsets:
#	150
#	19722
#	35976
#	52440
#	73752
#	98754
#	118434
#	135033
#	150862
#	174273
#	198817
#	220479
#	246098
#	274248
#	301246
#
# Disc length: 4376 seconds
#
# Revision: 0
# Processed by: cddbd v1.5.1PL2 Copyright (c) Steve Scherf et al.
# Submitted via: CDex 1.51
#
DISCID=d511160f
DTITLE=Tears For Fears - Everybody Loves A Happy Ending
DYEAR=2004
DGENRE=New Age
TTITLE0=Everybody Loves A Happy Ending
TTITLE1=Closest Thing To Heaven
TTITLE2=Call Me Mellow
TTITLE3=Size Of Sorrow
TTITLE4=Who Killed Tangerine
TTITLE5=Quiet Ones
TTITLE6=Who You Are
TTITLE7=The Devil
TTITLE8=Secret World
TTITLE9=Killing With Kindness
TTITLE10=Ladybird
TTITLE11=Last Days On Earth
TTITLE12=Pale Shelter (Razormaid Mix)
TTITLE13=Everybody Wants To Rule The World (12 Inch Promo Mix)
TTITLE14=Change (Extended Version)
EXTD=YEAR: 2004
EXTT0=
EXTT1=
EXTT2=
EXTT3=
EXTT4=
EXTT5=
EXTT6=
EXTT7=
EXTT8=
EXTT9=
EXTT10=
EXTT11=
EXTT12=
EXTT13=
EXTT14=
PLAYORDER=
